<svg xmlns="http://www.w3.org/2000/svg" viewBox="0 0 120 120" fill="none">
  <circle cx="60" cy="60" r="60" fill="#F5EBF0"/>
  <!-- Hijab -->
  <path d="M25 55 C25 25, 95 25, 95 55 L95 75 C95 90, 80 95, 60 95 C40 95, 25 90, 25 75Z" fill="#2D2D2D"/>
  <!-- Face -->
  <ellipse cx="60" cy="58" rx="24" ry="26" fill="#D4A574"/>
  <!-- Hijab frame -->
  <path d="M36 45 C36 32, 84 32, 84 45 L84 48 C84 48, 72 42, 60 45 C48 42, 36 48, 36 48Z" fill="#2D2D2D"/>
  <path d="M32 52 C32 52, 40 46, 60 46 C80 46, 88 52, 88 52 L90 60 C90 60, 80 50, 60 50 C40 50, 30 60, 30 60Z" fill="#2D2D2D"/>
  <!-- Eyes -->
  <ellipse cx="49" cy="58" rx="3" ry="3.5" fill="#2D2D2D"/>
  <ellipse cx="71" cy="58" rx="3" ry="3.5" fill="#2D2D2D"/>
  <!-- Eyelashes -->
  <path d="M44 55 Q49 52 54 55" stroke="#2D2D2D" stroke-width="1.5" fill="none" stroke-linecap="round"/>
  <path d="M66 55 Q71 52 76 55" stroke="#2D2D2D" stroke-width="1.5" fill="none" stroke-linecap="round"/>
  <!-- Nose -->
  <path d="M58 62 Q60 66 62 62" stroke="#B8926A" stroke-width="1.5" fill="none"/>
  <!-- Smile -->
  <path d="M50 70 Q60 76 70 70" stroke="#C4756A" stroke-width="2" fill="none" stroke-linecap="round"/>
  <!-- Garment -->
  <path d="M25 95 Q25 85, 60 82 Q95 85, 95 95 L95 120 L25 120Z" fill="#2D2D2D"/>
</svg>
